<svg xmlns="http://www.w3.org/2000/svg" width="20.178" height="18.246" viewBox="0 0 20.178 18.246">
  <path id="Icon_material-people-outline" data-name="Icon material-people-outline" d="M15.716,17.926a8.343,8.343,0,0,0-4.127,1.3,8.212,8.212,0,0,0-4.127-1.3c-1.99,0-5.962,1.408-5.962,4.236v3.584H21.678V22.162C21.678,19.334,17.707,17.926,15.716,17.926Zm-3.669,5.865H2.876V22.162c0-.7,2.348-2.281,4.586-2.281s4.586,1.577,4.586,2.281Zm8.255,0H13.423V22.162a2.942,2.942,0,0,0-.477-1.59,6.555,6.555,0,0,1,2.77-.691c2.238,0,4.586,1.577,4.586,2.281ZM7.462,16.623c1.77,0,3.21-2.046,3.21-4.562S9.232,7.5,7.462,7.5s-3.21,2.046-3.21,4.562S5.692,16.623,7.462,16.623Zm0-7.168c1.009,0,1.834,1.173,1.834,2.607s-.825,2.607-1.834,2.607S5.627,13.5,5.627,12.062,6.453,9.455,7.462,9.455Zm8.255,7.168c1.77,0,3.21-2.046,3.21-4.562S17.487,7.5,15.716,7.5s-3.21,2.046-3.21,4.562S13.946,16.623,15.716,16.623Zm0-7.168c1.009,0,1.834,1.173,1.834,2.607s-.825,2.607-1.834,2.607-1.834-1.173-1.834-2.607S14.708,9.455,15.716,9.455Z" transform="translate(-1.5 -7.5)" fill="#5358e2"/>
</svg>
