<svg xmlns="http://www.w3.org/2000/svg" width="15.488" height="19.674" viewBox="0 0 15.488 19.674">
  <path id="Icon_metro-file-text" data-name="Icon metro-file-text" d="M19.257,6.329A17.024,17.024,0,0,0,17.75,4.414a16.309,16.309,0,0,0-1.723-1.675c-.891-.727-1.324-.811-1.572-.811H5.882A1.468,1.468,0,0,0,4.5,3.465v16.6A1.468,1.468,0,0,0,5.882,21.6H18.6a1.468,1.468,0,0,0,1.383-1.537V8.076a3.249,3.249,0,0,0-.729-1.747ZM16.968,5.283a16.339,16.339,0,0,1,1.255,1.563H15.561V3.889A15.726,15.726,0,0,1,16.968,5.283ZM18.88,20.065a.3.3,0,0,1-.277.307H5.882a.3.3,0,0,1-.277-.307V3.465a.3.3,0,0,1,.277-.307h8.574v4.3a.586.586,0,0,0,.553.615H18.88Zm-2.766-2.152H8.371a.618.618,0,0,1,0-1.23h7.744a.618.618,0,0,1,0,1.23Zm0-2.459H8.371a.618.618,0,0,1,0-1.23h7.744a.618.618,0,0,1,0,1.23Zm0-2.459H8.371a.618.618,0,0,1,0-1.23h7.744a.618.618,0,0,1,0,1.23Z" transform="translate(-4.499 -1.928)" fill="#fe6150"/>
</svg>
