<svg xmlns="http://www.w3.org/2000/svg" width="17.558" height="14.915" viewBox="0 0 17.558 14.915">
  <path id="Icon_awesome-home" data-name="Icon awesome-home" d="M8.545,6.123l-5.62,5.056v5.457a.512.512,0,0,0,.488.533l3.416-.01a.512.512,0,0,0,.485-.533V13.439a.512.512,0,0,1,.488-.533H9.752a.512.512,0,0,1,.488.533v3.184a.559.559,0,0,0,.142.378.468.468,0,0,0,.345.157l3.414.01a.512.512,0,0,0,.488-.533v-5.46L9.011,6.123A.347.347,0,0,0,8.545,6.123Zm8.877,3.436L14.874,7.265V2.653a.384.384,0,0,0-.366-.4H12.8a.384.384,0,0,0-.366.4V5.071L9.706,2.618a1.369,1.369,0,0,0-1.859,0L.132,9.559a.425.425,0,0,0-.049.563L.86,11.154a.358.358,0,0,0,.247.144.345.345,0,0,0,.268-.09l7.17-6.451a.347.347,0,0,1,.466,0l7.17,6.451a.345.345,0,0,0,.515-.053l.777-1.032a.425.425,0,0,0,.081-.294.411.411,0,0,0-.133-.27Z" transform="translate(0.001 -2.254)" fill="#c9cdd0"/>
</svg>
