<svg xmlns="http://www.w3.org/2000/svg" width="17.334" height="15.63" viewBox="0 0 17.334 15.63">
  <path id="Icon_awesome-taxi" data-name="Icon awesome-taxi" d="M15.641,9.564,14.9,6.6a2.783,2.783,0,0,0-2.6-2.121h-.379V3.366A1.1,1.1,0,0,0,10.834,2.25H6.5A1.1,1.1,0,0,0,5.417,3.366V4.483H5.038A2.783,2.783,0,0,0,2.438,6.6l-.745,2.96A2.217,2.217,0,0,0,0,11.74v1.675a2.235,2.235,0,0,0,1.083,1.923v1.426A1.1,1.1,0,0,0,2.167,17.88H3.25a1.1,1.1,0,0,0,1.083-1.116V15.647H13v1.116a1.1,1.1,0,0,0,1.083,1.116h1.083a1.1,1.1,0,0,0,1.083-1.116V15.338a2.236,2.236,0,0,0,1.083-1.923V11.74A2.217,2.217,0,0,0,15.641,9.564ZM3.25,13.414a1.117,1.117,0,0,1,0-2.233,1.117,1.117,0,0,1,0,2.233Zm.7-3.908.582-2.315a.619.619,0,0,1,.51-.476H12.3a.607.607,0,0,1,.5.449l.589,2.342Zm10.138,3.908A1.117,1.117,0,1,1,15.167,12.3,1.1,1.1,0,0,1,14.084,13.414Z" transform="translate(0 -2.25)" fill="#c9cdd0"/>
</svg>
