<svg xmlns="http://www.w3.org/2000/svg" width="15.758" height="16.773" viewBox="0 0 15.758 16.773">
  <path id="Icon_awesome-calendar" data-name="Icon awesome-calendar" d="M.422,6.29H15.336a.41.41,0,0,1,.422.393V15.2a1.634,1.634,0,0,1-1.688,1.572H1.688A1.634,1.634,0,0,1,0,15.2V6.683A.41.41,0,0,1,.422,6.29ZM15.758,4.848V3.669A1.634,1.634,0,0,0,14.07,2.1H12.382V.393A.41.41,0,0,0,11.96,0H10.553a.41.41,0,0,0-.422.393V2.1h-4.5V.393A.41.41,0,0,0,5.206,0H3.8a.41.41,0,0,0-.422.393V2.1H1.688A1.634,1.634,0,0,0,0,3.669V4.848a.41.41,0,0,0,.422.393H15.336A.41.41,0,0,0,15.758,4.848Z" fill="#6d4de4"/>
</svg>
