<svg xmlns="http://www.w3.org/2000/svg" width="49.284" height="43.875" viewBox="0 0 49.284 43.875">
  <path id="Icon_awesome-shopping-cart" data-name="Icon awesome-shopping-cart" d="M45.187,25.821,49.232,8a2.056,2.056,0,0,0-2-2.512H13.622l-.784-3.84A2.054,2.054,0,0,0,10.826,0H2.053A2.055,2.055,0,0,0,0,2.057V3.428A2.055,2.055,0,0,0,2.053,5.484H8.033l6.011,29.43a4.793,4.793,0,1,0,5.736.734H37.718a4.789,4.789,0,1,0,5.442-.892l.472-2.08a2.056,2.056,0,0,0-2-2.512H18.662l-.56-2.742H43.184A2.054,2.054,0,0,0,45.187,25.821Z"/>
</svg>
