<svg xmlns="http://www.w3.org/2000/svg" width="28.159" height="28.407" viewBox="0 0 28.159 28.407">
  <g id="Icon_feather-settings" data-name="Icon feather-settings" transform="translate(-0.5 -0.5)">
    <path id="Path_13" data-name="Path 13" d="M22.5,18A4.5,4.5,0,1,1,18,13.5,4.5,4.5,0,0,1,22.5,18Z" transform="translate(-3.421 -3.296)" fill="none" stroke="#211d43" stroke-linecap="round" stroke-linejoin="round" stroke-width="2"/>
    <path id="Path_14" data-name="Path 14" d="M23.378,18.3a2,2,0,0,0,.392,2.185l.071.072a2.417,2.417,0,0,1,0,3.4,2.362,2.362,0,0,1-3.365,0l-.071-.072a1.948,1.948,0,0,0-2.164-.4A1.981,1.981,0,0,0,17.053,25.3v.2a2.378,2.378,0,1,1-4.756,0V25.4a1.979,1.979,0,0,0-1.284-1.813,1.948,1.948,0,0,0-2.164.4l-.071.072a2.362,2.362,0,0,1-3.365,0,2.417,2.417,0,0,1,0-3.4l.071-.072A2,2,0,0,0,5.876,18.4a1.962,1.962,0,0,0-1.8-1.2h-.2a2.4,2.4,0,0,1,0-4.8h.107a1.963,1.963,0,0,0,1.8-1.3,2,2,0,0,0-.392-2.185l-.071-.072a2.417,2.417,0,0,1,0-3.4,2.362,2.362,0,0,1,3.365,0l.071.072a1.948,1.948,0,0,0,2.164.4h.1A1.981,1.981,0,0,0,12.2,4.1V3.9a2.378,2.378,0,1,1,4.756,0v.108a1.981,1.981,0,0,0,1.189,1.813,1.948,1.948,0,0,0,2.164-.4l.071-.072a2.362,2.362,0,0,1,3.365,0,2.417,2.417,0,0,1,0,3.4l-.071.072a2,2,0,0,0-.392,2.185v.1a1.962,1.962,0,0,0,1.8,1.2h.2a2.4,2.4,0,0,1,0,4.8h-.107a1.962,1.962,0,0,0-1.8,1.2Z" fill="none" stroke="#211d43" stroke-linecap="round" stroke-linejoin="round" stroke-width="2"/>
  </g>
</svg>
